<?xml version="1.0" encoding="utf-8"?>
<!-- Generator: Adobe Illustrator 19.0.0, SVG Export Plug-In . SVG Version: 6.00 Build 0)  -->
<svg version="1.1" id="Calque_1" xmlns="http://www.w3.org/2000/svg" xmlns:xlink="http://www.w3.org/1999/xlink" x="0px" y="0px"
	 viewBox="-152 391.9 148 58.1" style="enable-background:new -152 391.9 148 58.1;" xml:space="preserve">
<style type="text/css">
	.st0{fill:#FFFFFF;}
</style>
<title>default-skin 2</title>
<path id="Shape" d="M-98,436.4v3.8c-6.3,0.8-9.2,5.8-10,9.7c2.2-2.8,5.6-5.1,10-5.1v3.6l6-5.9L-98,436.4z"/>
<g>
	<path d="M-152,405.9v-5h2v3h3v2H-152z M-152,391.9h5v2h-3v3h-2V391.9z M-134,391.9v5h-2v-3h-3v-2H-134z M-134,405.9h-5v-2h3v-3h2
		V405.9z"/>
</g>
<path d="M-103,400.9v5h-2v-3h-3v-2H-103z M-103,396.9h-5v-2h3v-3h2V396.9z M-95,396.9v-5h2v3h3v2H-95z M-95,400.9h5v2h-3v3h-2V400.9
	z M-144.4,442.9l-5.7-5.7l1.4-1.4l5.7,5.6l5.7-5.7l1.4,1.4l-5.6,5.7l5.7,5.7l-1.4,1.4l-5.7-5.6l-5.7,5.7l-1.4-1.4L-144.4,442.9
	L-144.4,442.9z M-53.2,441.9l-1.8-1.5l3-3.5h-10v-2h10l-3-3.5l1.8-1.5l5.2,6L-53.2,441.9L-53.2,441.9z M-12.8,441.9l1.8-1.5l-3-3.5
	h10v-2h-10l3-3.5l-1.8-1.5l-5.2,6L-12.8,441.9L-12.8,441.9z"/>
<path d="M-4,405.4l-3.3-3.3l-1.4,1.4l3.2,3.3L-4,405.4z"/>
<path d="M-12.5,403.9c3,0,5.5-2.5,5.5-5.5s-2.5-5.5-5.5-5.5s-5.5,2.5-5.5,5.5S-15.5,403.9-12.5,403.9z"/>
<path class="st0" d="M-15,397.9h5v1h-5V397.9z M-48,405.4l-1.4,1.4l-3.3-3.3l1.4-1.4L-48,405.4L-48,405.4z"/>
<path d="M-56.5,403.9c3,0,5.5-2.5,5.5-5.5s-2.5-5.5-5.5-5.5s-5.5,2.5-5.5,5.5S-59.5,403.9-56.5,403.9z"/>
<path class="st0" d="M-59,397.9h5v1h-5V397.9z M-56,395.9l-0.1,5h-1l0.1-5H-56z"/>
</svg>
